<svg version="1.1" xmlns="http://www.w3.org/2000/svg" style="display: block;" viewBox="0 0 2048 2048" width="2048" height="2048" preserveAspectRatio="none">
<defs>
	<linearGradient id="Gradient1" gradientUnits="userSpaceOnUse" x1="1270.81" y1="1118.04" x2="1272.19" y2="894.983">
		<stop class="stop0" offset="0" stop-opacity="1" stop-color="rgb(222,97,71)"/>
		<stop class="stop1" offset="1" stop-opacity="1" stop-color="rgb(238,128,99)"/>
	</linearGradient>
	<linearGradient id="Gradient2" gradientUnits="userSpaceOnUse" x1="917.592" y1="1212.07" x2="872.504" y2="801.813">
		<stop class="stop0" offset="0" stop-opacity="1" stop-color="rgb(220,94,68)"/>
		<stop class="stop1" offset="1" stop-opacity="1" stop-color="rgb(239,129,100)"/>
	</linearGradient>
	<linearGradient id="Gradient3" gradientUnits="userSpaceOnUse" x1="1123.54" y1="1211.08" x2="1176.66" y2="802.425">
		<stop class="stop0" offset="0" stop-opacity="1" stop-color="rgb(221,95,69)"/>
		<stop class="stop1" offset="1" stop-opacity="1" stop-color="rgb(240,131,101)"/>
	</linearGradient>
	<linearGradient id="Gradient4" gradientUnits="userSpaceOnUse" x1="950.199" y1="1322.78" x2="1094.8" y2="688.222">
		<stop class="stop0" offset="0" stop-opacity="1" stop-color="rgb(221,96,70)"/>
		<stop class="stop1" offset="1" stop-opacity="1" stop-color="rgb(242,135,105)"/>
	</linearGradient>
</defs>
<path transform="translate(0,0)" fill="#141413" d="M 0 0 L 2048 0 L 2048 2048 L 0 2048 L 0 0 z"/>
<path transform="translate(0,0)" fill="rgb(226,106,79)" d="M 1012.26 289.45 C 1175.57 285.764 1334.88 340.313 1461.65 443.337 C 1589.25 547.273 1677.7 691.522 1712.47 852.381 C 1719.55 885.033 1722.75 911.443 1726.15 944.42 C 1724.23 949.36 1720.8 955.669 1714.67 955.983 C 1698.95 956.615 1683.04 956.527 1667.28 956.525 C 1655.18 956.523 1649.85 953.485 1648.1 941.296 C 1646.33 928.962 1644.99 916.675 1643.11 904.405 C 1639.37 880.201 1634.23 856.233 1627.73 832.621 C 1599.88 732.048 1548.09 639.715 1476.79 563.514 C 1357.25 436.215 1209.18 373.523 1035.73 368.207 C 962.554 366.857 889.687 378.059 820.294 401.327 C 625.032 466.435 475.402 632.863 419.599 829.684 C 412.03 856.021 406.321 882.856 402.512 909.992 C 400.751 922.216 400.244 939.364 395.731 950.862 C 394.375 954.317 383.878 956.646 380.223 956.657 C 363.67 956.706 346.709 956.969 330.169 956.159 C 323.687 954.758 320.607 945.071 321.002 939.348 C 322.753 913.968 326.901 886.981 331.953 862.136 C 358.678 729.373 422.369 606.863 515.688 508.721 C 622.763 394.262 765.502 319.514 920.568 296.698 C 951.763 292.107 980.873 290.409 1012.26 289.45 z"/>
<path transform="translate(0,0)" fill="rgb(226,106,79)" d="M 330.557 1052.22 C 347.658 1052.11 366.657 1051.6 383.696 1052.43 C 400.001 1053.22 398.437 1070.11 400.175 1085.09 C 412.31 1192.76 451.926 1295.5 515.219 1383.44 C 614.074 1520.32 763.878 1611.64 930.838 1636.79 C 1092.24 1661.5 1256.88 1621.83 1389.31 1526.31 C 1505.6 1441.35 1589.74 1319.57 1628.09 1180.76 C 1634.67 1156.94 1639.78 1132.74 1643.39 1108.3 C 1652.26 1047.57 1639.01 1050.02 1704.13 1051.81 C 1708.48 1050.85 1723.06 1052.04 1724.28 1058.2 C 1727.91 1076.44 1720.84 1114.85 1717.65 1132.2 C 1714.57 1152.7 1708.74 1177.71 1703.37 1197.7 C 1654.18 1379.73 1534.85 1534.83 1371.52 1629.03 C 1210.91 1721.78 1019.85 1746.32 841.022 1697.19 C 658.8 1647.52 503.922 1527.21 410.725 1362.93 C 365.019 1282.28 335.555 1193.46 323.996 1101.49 C 323.18 1095.16 322.057 1088.58 321.562 1082.25 C 320.452 1068.06 315.895 1059.61 330.557 1052.22 z"/>
<path transform="translate(0,0)" fill="rgb(226,106,79)" d="M 490.891 1051.89 C 501.365 1051.77 542.334 1047.96 545.863 1059.18 C 548.118 1066.35 550.293 1083.23 551.747 1091.83 C 554.632 1109.81 558.619 1127.59 563.686 1145.08 C 598.95 1269.05 682.356 1373.76 795.306 1435.86 C 905.766 1496.09 1035.53 1510.29 1156.4 1475.39 C 1312.38 1429.39 1434.47 1307.55 1480.8 1151.67 C 1486.78 1131.75 1491.86 1111.48 1494.92 1090.82 C 1496.59 1082.25 1497.04 1064.11 1501.37 1057.25 C 1506.85 1048.57 1557.07 1049.6 1560.93 1057 C 1566.2 1067.08 1557.59 1105.03 1555.56 1116.04 C 1528.49 1238.82 1474.07 1340.21 1378.87 1424.12 C 1272.13 1518.73 1132.08 1566.89 989.725 1557.95 C 845.815 1548.4 711.63 1481.94 616.829 1373.25 C 552.451 1299.47 508.747 1209.96 490.155 1113.82 C 487.232 1098.86 483.409 1077.91 483.274 1062.63 C 483.232 1057.91 487.496 1054.69 490.891 1051.89 z"/>
<path transform="translate(0,0)" fill="rgb(226,106,79)" d="M 995.693 456.433 C 1135.99 448.74 1273.67 496.597 1378.94 589.65 C 1479.84 677.839 1546.03 804.992 1562.01 938.467 C 1564.05 958.58 1550.42 956.716 1535.98 956.212 C 1512.54 955.393 1501.21 964.059 1496.95 935.13 C 1483.93 842.981 1444.89 756.459 1384.42 685.721 C 1298.74 585.728 1183.58 531.261 1053.22 521.214 C 1017.37 519.658 986.232 520.557 950.532 526.192 C 772.782 553.274 625.467 678.215 569.731 849.159 C 563.608 867.335 558.541 885.849 554.555 904.609 C 550.839 922.205 553.113 955.679 532.775 956.437 C 525.043 956.725 516.714 956.385 508.796 956.564 C 496.482 956.842 484.578 958.396 484.215 942.115 C 516.009 672.758 725.389 474.755 995.693 456.433 z"/>
<path transform="translate(0,0)" fill="url(#Gradient4)" d="M 1019.59 671.347 C 1029.97 671.105 1035.13 672.813 1044 677.779 C 1050.81 681.596 1061.6 695.045 1062.4 702.272 C 1064.83 724.261 1063.91 750.175 1063.92 772.53 L 1063.92 914.755 L 1063.93 1171.5 L 1063.94 1254.74 C 1063.94 1289.83 1071.95 1331.93 1026.66 1340.82 C 1007.18 1341.41 986.956 1328.35 983.333 1308.1 C 981.062 1295.41 982.053 1277.3 982.038 1264.14 L 981.988 1204.12 L 981.955 1004.85 L 981.974 805.677 L 982.04 743.703 C 982.104 711.921 978.483 679.041 1019.59 671.347 z"/>
<path transform="translate(0,0)" fill="url(#Gradient3)" d="M 1144.71 798.281 C 1162.22 796.85 1175.02 802.859 1184.71 817.741 C 1190.41 826.474 1190.74 834.681 1190.93 844.744 C 1191.19 858.526 1191.06 872.332 1191.05 886.114 L 1191.04 990.472 L 1191.01 1109.95 C 1191 1130.8 1191.17 1151.64 1190.87 1172.49 C 1190.52 1195.92 1179.39 1209.52 1157.21 1216.08 C 1148.24 1216.79 1143.28 1216.56 1134.61 1212.78 C 1127.18 1210.1 1114.29 1197.09 1112.84 1188.96 C 1108.52 1164.74 1110.2 1130.2 1110.19 1106.17 L 1110.14 984.041 L 1110.13 890.162 C 1110.13 873.193 1109.91 856.328 1110.54 839.366 C 1111.34 817.85 1124.18 803.635 1144.71 798.281 z"/>
<path transform="translate(0,0)" fill="url(#Gradient2)" d="M 892.112 798.215 C 910.655 797.249 931.229 811.041 934.523 829.951 C 937.022 844.301 935.841 863.902 935.849 878.812 L 935.837 970.1 L 935.865 1104.81 C 935.868 1128.62 936.286 1152.82 935.384 1176.59 C 934.583 1197.7 920.19 1212 899.944 1216.5 C 881.071 1217.59 859.854 1204.82 856.891 1185.19 C 854.098 1166.67 855.291 1144.5 855.296 1125.54 L 855.331 1019.92 L 855.255 899.686 C 855.245 884.11 855.158 868.464 855.247 852.947 C 855.326 839.099 854.813 826.709 863.642 815.114 C 871.476 804.826 879.658 800.385 892.112 798.215 z"/>
<path transform="translate(0,0)" fill="url(#Gradient1)" d="M 1264.34 894.246 C 1283.5 892.583 1298.55 898.648 1306.68 917.529 C 1307.96 920.509 1309.49 929.299 1309.53 932.53 C 1310.13 982.121 1310.29 1031.89 1309.56 1081.47 C 1309.27 1100.78 1298.04 1113.76 1280.34 1120 C 1271.55 1121.57 1263.3 1120.74 1255.28 1116.63 C 1246.81 1112.28 1238.96 1103.43 1236.26 1094.23 C 1232.57 1081.63 1232.77 948.402 1234.49 929.16 C 1234.97 923.834 1235.98 919.302 1238.53 914.536 C 1244.31 903.732 1252.86 897.764 1264.34 894.246 z"/>
<path transform="translate(0,0)" fill="rgb(226,106,79)" d="M 767.611 894.187 C 792.787 891.882 811.863 907.651 812.005 933.178 C 812.282 983.131 812.599 1033.28 811.781 1083.22 C 811.481 1101.59 799.426 1114.5 782.489 1120.15 C 757.281 1124.02 737.08 1106.17 736.961 1080.94 C 736.723 1030.84 736.131 980.475 736.998 930.387 C 737.315 912.082 750.35 898.928 767.611 894.187 z"/>
<path transform="translate(0,0)" fill="rgb(226,106,79)" d="M 1377.08 955.287 C 1411.23 951.052 1417.27 978.461 1415.9 1005.88 C 1414.73 1029.39 1419.34 1050.16 1390.76 1059.85 C 1360.02 1064.39 1350.94 1038.93 1352.21 1013.56 C 1353.53 987.315 1346.31 967.16 1377.08 955.287 z"/>
<path transform="translate(0,0)" fill="rgb(226,106,79)" d="M 656.128 955.25 C 690.22 951.539 695.34 979.045 694.162 1005.27 C 693.039 1030.27 697.928 1050.7 667.854 1060.15 C 634.747 1064.17 629.385 1034.08 630.626 1009.13 C 631.867 984.2 626.538 965.446 656.128 955.25 z"/>
</svg>